<!-- icon666.com - MILLIONS vector ICONS FREE --><svg viewBox="0 0 110 110" xmlns="http://www.w3.org/2000/svg"><g id="_23._Newspaper" data-name="23. Newspaper"><circle cx="55" cy="59" fill="#e7efff" r="50"></circle><circle cx="17" cy="4" fill="#ffa100" r="3" style="fill: rgb(148, 33, 146);"></circle><circle cx="106" cy="10" fill="#00c99f" r="3"></circle><circle cx="97" cy="106" fill="#ff4d69" r="3"></circle><circle cx="4" cy="91" fill="#00c99f" r="3"></circle><path d="m93 18v73.48a50 50 0 0 1 -16.19 12.52h-43.62a49.82 49.82 0 0 1 -9.11-5.72l2.92-3.28v-77a4 4 0 0 1 4-4h58a4 4 0 0 1 4 4z" fill="#8fa2ff" style="fill: rgb(0, 97, 255);"></path><rect fill="#fff" height="18" rx="4" width="52" x="34" y="22"></rect><path d="m45.2 35.6-4.2-5.6v5a1 1 0 0 1 -2 0v-8a1 1 0 0 1 1.8-.6l4.2 5.6v-5a1 1 0 0 1 2 0v8a1 1 0 0 1 -1.8.6z" fill="#ffa100" style="fill: rgb(148, 33, 146);"></path><path d="m55 36h-4a1 1 0 0 1 -1-1v-8a1 1 0 0 1 1-1h4a1 1 0 0 1 0 2h-3v6h3a1 1 0 0 1 0 2z" fill="#ffa100" style="fill: rgb(148, 33, 146);"></path><path d="m54 32h-3a1 1 0 0 1 0-2h3a1 1 0 0 1 0 2z" fill="#ffa100" style="fill: rgb(148, 33, 146);"></path><path d="m65.2 35.6-2.2-2.93-2.2 2.93a1 1 0 0 1 -1.8-.6v-8a1 1 0 0 1 2 0v5l1.2-1.6a1 1 0 0 1 1.6 0l1.2 1.6v-5a1 1 0 0 1 2 0v8a1 1 0 0 1 -1.8.6z" fill="#ffa100" style="fill: rgb(148, 33, 146);"></path><path d="m73 36h-2a1 1 0 0 1 0-2h2a1 1 0 0 0 0-2 3 3 0 0 1 0-6h2a1 1 0 0 1 0 2h-2a1 1 0 0 0 0 2 3 3 0 0 1 0 6z" fill="#ffa100" style="fill: rgb(148, 33, 146);"></path><path d="m27 54v42a7.83 7.83 0 0 1 -.95 3.76 50.25 50.25 0 0 1 -15-17v-24.76a4 4 0 0 1 4-4z" fill="#4e6aff" style="fill: rgb(0, 163, 215);"></path><path d="m27 45v50h-6.68c-.8-.77-1.58-1.57-2.32-2.39v-43.61a4 4 0 0 1 4-4z" fill="#323fd4"></path><path d="m80 36a1 1 0 1 1 1-1 1 1 0 0 1 -1 1z" fill="#ffa100" style="fill: rgb(148, 33, 146);"></path><rect fill="#4e6aff" height="32" rx="2" width="26" x="34" y="46" style="fill: rgb(0, 163, 215);"></rect><g fill="#fff"><path d="m85 48h-20a1 1 0 0 1 0-2h20a1 1 0 0 1 0 2z" fill="#fff"></path><path d="m85 54h-20a1 1 0 0 1 0-2h20a1 1 0 0 1 0 2z" fill="#fff"></path><path d="m85 60h-20a1 1 0 0 1 0-2h20a1 1 0 0 1 0 2z" fill="#fff"></path><path d="m85 66h-20a1 1 0 0 1 0-2h20a1 1 0 0 1 0 2z" fill="#fff"></path><path d="m85 72h-20a1 1 0 0 1 0-2h20a1 1 0 0 1 0 2z" fill="#fff"></path><path d="m85 78h-20a1 1 0 0 1 0-2h20a1 1 0 0 1 0 2z" fill="#fff"></path><path d="m85 84h-50a1 1 0 0 1 0-2h50a1 1 0 0 1 0 2z" fill="#fff"></path><path d="m85 90h-50a1 1 0 0 1 0-2h50a1 1 0 0 1 0 2z" fill="#fff"></path><path d="m85 96h-50a1 1 0 0 1 0-2h50a1 1 0 0 1 0 2z" fill="#fff"></path></g><path d="m34 76v-6l6.59-7.41a2 2 0 0 1 2.91-.09l3.5 3.5 5.48-6.26a2 2 0 0 1 3 0l4.52 5.26v11a2 2 0 0 1 -2 2h-22a2 2 0 0 1 -2-2z" fill="#323fd4"></path><circle cx="47" cy="55" fill="#8fa2ff" r="3" style="fill: rgb(0, 97, 255);"></circle></g></svg>